<?xml version="1.0" standalone="no"?>
<!DOCTYPE svg PUBLIC "-//W3C//DTD SVG 20010904//EN"
 "http://www.w3.org/TR/2001/REC-SVG-20010904/DTD/svg10.dtd">
<svg version="1.0" xmlns="http://www.w3.org/2000/svg"
 width="16.000000pt" height="16.000000pt" viewBox="0 0 16.000000 16.000000"
 preserveAspectRatio="xMidYMid meet">
<metadata>
Created by potrace 1.11, written by Peter Selinger 2001-2013
</metadata>
<g transform="translate(0.000000,16.000000) scale(0.004000,-0.004000)"
fill="#000000" stroke="none">
<path d="M2929 2959 l-29 -31 -1 -412 c-2 -1127 -1 -1175 32 -1282 22 -70 77
-150 124 -181 77 -51 100 -53 501 -53 l376 0 29 29 c38 39 40 97 5 138 l-24
28 -382 5 -382 5 -23 29 c-30 37 -45 91 -51 179 -3 40 -4 397 -4 795 l0 723
-29 30 c-42 42 -102 41 -142 -2z"/>
<path d="M33 2375 l-33 -33 0 -630 c0 -378 4 -641 10 -656 11 -29 57 -56 97
-56 16 0 41 11 58 26 l30 26 3 643 2 644 -27 31 c-20 22 -39 32 -67 34 -34 4
-45 -1 -73 -29z"/>
<path d="M322 2394 c-42 -17 -67 -77 -51 -123 23 -65 26 -65 424 -67 198 -1
365 -2 371 -3 22 -2 61 -51 73 -91 19 -62 23 -177 25 -636 1 -398 2 -423 20
-443 25 -27 78 -37 117 -21 61 26 62 27 61 524 -1 542 -4 579 -51 688 -36 84
-118 155 -201 174 -57 13 -757 12 -788 -2z"/>
<path d="M1480 2394 c-47 -20 -67 -78 -45 -131 24 -56 27 -57 425 -58 258 -1
371 -4 386 -13 12 -6 31 -32 43 -58 28 -60 33 -141 35 -676 1 -383 2 -407 20
-427 44 -49 141 -31 167 30 12 30 17 807 5 955 -17 217 -100 345 -247 380 -58
13 -756 12 -789 -2z"/>
</g>
</svg>
