<svg id="Ebene_1" data-name="Ebene 1" xmlns="http://www.w3.org/2000/svg" viewBox="0 0 399.38 199.4"><defs><style>.cls-1,.cls-2{fill:none;stroke:#fdfdfd;stroke-linecap:round;stroke-width:20px;}.cls-1{stroke-miterlimit:10;}.cls-2{stroke-linejoin:round;}</style></defs><title>logo_white</title><line class="cls-1" x1="10" y1="68.73" x2="10" y2="189.33"/><path class="cls-2" d="M36.49,68.8h64.28c4.33-.3,12.21.1,18,7.12,6.65,8.06,7,20.55,7.15,29.42,0.57,32.57.38,61.47,0,84" transform="translate(0 0)"/><path class="cls-1" d="M300.12,10V65.53c-0.38,23.14-.56,52.82,0,86.27,0.15,9.11.5,21.93,7.14,30.21,5.78,7.21,13.63,7.62,18,7.32h64.12" transform="translate(0 0)"/><path class="cls-2" d="M152.49,68.8h64.28c4.33-.3,12.21.1,18,7.12,6.65,8.06,7,20.55,7.15,29.42,0.57,32.57.38,61.47,0,84" transform="translate(0 0)"/></svg>